<svg preserveAspectRatio="none" width="100%" height="100%" overflow="visible" style="display: block;" viewBox="0 0 20 20" fill="none" xmlns="http://www.w3.org/2000/svg">
<g id="Icon" clip-path="url(#clip0_40_121)">
<path id="Vector" d="M10 15V4.16667" stroke="var(--stroke-0, #0092B8)" stroke-width="1.66667" stroke-linecap="round" stroke-linejoin="round"/>
<path id="Vector_2" d="M12.5 10.8333C11.779 10.6226 11.1457 10.1839 10.695 9.58292C10.2443 8.98198 10.0005 8.25117 10 7.5C9.99955 8.25117 9.7557 8.98198 9.305 9.58292C8.8543 10.1839 8.221 10.6226 7.5 10.8333" stroke="var(--stroke-0, #0092B8)" stroke-width="1.66667" stroke-linecap="round" stroke-linejoin="round"/>
<path id="Vector_3" d="M14.665 5.41668C14.8568 5.08458 14.9695 4.71283 14.9946 4.33017C15.0197 3.94751 14.9565 3.56421 14.8097 3.20992C14.663 2.85563 14.4367 2.53984 14.1484 2.28699C13.8601 2.03414 13.5175 1.85101 13.1471 1.75175C12.7766 1.6525 12.3884 1.63979 12.0123 1.71461C11.6361 1.78942 11.2823 1.94976 10.9781 2.18321C10.6738 2.41667 10.4274 2.71698 10.2578 3.06092C10.0882 3.40485 9.99998 3.7832 10 4.16668C10 3.7832 9.91181 3.40485 9.74222 3.06092C9.57262 2.71698 9.32617 2.41667 9.02194 2.18321C8.71771 1.94976 8.36386 1.78942 7.98775 1.71461C7.61164 1.63979 7.22336 1.6525 6.85294 1.75175C6.48253 1.85101 6.13992 2.03414 5.85161 2.28699C5.5633 2.53984 5.33702 2.85563 5.19028 3.20992C5.04353 3.56421 4.98026 3.94751 5.00536 4.33017C5.03046 4.71283 5.14324 5.08458 5.335 5.41668" stroke="var(--stroke-0, #0092B8)" stroke-width="1.66667" stroke-linecap="round" stroke-linejoin="round"/>
<path id="Vector_4" d="M14.9975 4.27083C15.4873 4.39678 15.9421 4.63254 16.3273 4.96026C16.7125 5.28798 17.0181 5.69906 17.221 6.16237C17.4238 6.62569 17.5185 7.12908 17.498 7.63443C17.4775 8.13978 17.3422 8.63383 17.1025 9.07917" stroke="var(--stroke-0, #0092B8)" stroke-width="1.66667" stroke-linecap="round" stroke-linejoin="round"/>
<path id="Vector_5" d="M15 15C15.7338 15 16.447 14.7578 17.0291 14.3111C17.6112 13.8645 18.0297 13.2382 18.2196 12.5294C18.4095 11.8207 18.3603 11.0691 18.0795 10.3911C17.7987 9.71324 17.3021 9.14692 16.6667 8.78001" stroke="var(--stroke-0, #0092B8)" stroke-width="1.66667" stroke-linecap="round" stroke-linejoin="round"/>
<path id="Vector_6" d="M16.6392 14.5691C16.6976 15.021 16.6627 15.48 16.5368 15.9179C16.4108 16.3558 16.1964 16.7632 15.9068 17.1149C15.6173 17.4667 15.2587 17.7554 14.8531 17.9631C14.4476 18.1708 14.0039 18.2933 13.5492 18.3228C13.0945 18.3523 12.6386 18.2882 12.2097 18.1347C11.7807 17.9811 11.3878 17.7412 11.0552 17.4298C10.7226 17.1184 10.4574 16.7421 10.2759 16.3242C10.0944 15.9063 10.0005 15.4556 10 15C9.99951 15.4556 9.90562 15.9063 9.72413 16.3242C9.54264 16.7421 9.27741 17.1184 8.9448 17.4298C8.61219 17.7412 8.21928 17.9811 7.79032 18.1347C7.36137 18.2882 6.90548 18.3523 6.45081 18.3228C5.99615 18.2933 5.55236 18.1708 5.14685 17.9631C4.74134 17.7554 4.38273 17.4667 4.09315 17.1149C3.80358 16.7632 3.58919 16.3558 3.46324 15.9179C3.33728 15.48 3.30243 15.021 3.36083 14.5691" stroke="var(--stroke-0, #0092B8)" stroke-width="1.66667" stroke-linecap="round" stroke-linejoin="round"/>
<path id="Vector_7" d="M5.00001 15C4.26625 15 3.55301 14.7578 2.9709 14.3111C2.38878 13.8645 1.97032 13.2382 1.7804 12.5294C1.59049 11.8207 1.63974 11.0691 1.92052 10.3911C2.2013 9.71324 2.69791 9.14692 3.33334 8.78001" stroke="var(--stroke-0, #0092B8)" stroke-width="1.66667" stroke-linecap="round" stroke-linejoin="round"/>
<path id="Vector_8" d="M5.00249 4.27083C4.51266 4.39678 4.05791 4.63254 3.67268 4.96026C3.28746 5.28798 2.98186 5.69906 2.77903 6.16237C2.5762 6.62569 2.48146 7.12908 2.50198 7.63443C2.52251 8.13978 2.65776 8.63383 2.89749 9.07917" stroke="var(--stroke-0, #0092B8)" stroke-width="1.66667" stroke-linecap="round" stroke-linejoin="round"/>
</g>
<defs>
<clipPath id="clip0_40_121">
<rect width="20" height="20" fill="white"/>
</clipPath>
</defs>
</svg>
